<svg width="65" height="65" viewBox="0 0 65 65" fill="none" xmlns="http://www.w3.org/2000/svg">
<path d="M0 30C0 15.8579 0 8.7868 4.3934 4.3934C8.7868 0 15.8579 0 30 0H35C49.1421 0 56.2132 0 60.6066 4.3934C65 8.7868 65 15.8579 65 30V35C65 49.1421 65 56.2132 60.6066 60.6066C56.2132 65 49.1421 65 35 65H30C15.8579 65 8.7868 65 4.3934 60.6066C0 56.2132 0 49.1421 0 35V30Z" fill="#F2994B"/>
<path d="M32.9998 12.1666C27.4963 12.2368 22.238 14.4543 18.3461 18.3462C14.4542 22.2381 12.2367 27.4964 12.1665 33C12.1922 36.206 12.9576 39.3629 14.403 42.2248C15.8484 45.0867 17.9348 47.5764 20.4998 49.5V49.6666H20.7082C24.2356 52.3697 28.5558 53.8346 32.9998 53.8346C37.4439 53.8346 41.764 52.3697 45.2915 49.6666H45.4998V49.5C48.0649 47.5764 50.1513 45.0867 51.5967 42.2248C53.0421 39.3629 53.8074 36.206 53.8332 33C53.763 27.4964 51.5455 22.2381 47.6536 18.3462C43.7617 14.4543 38.5034 12.2368 32.9998 12.1666ZM24.8123 47.4375C25.1165 46.0446 25.8877 44.7976 26.9979 43.9034C28.1082 43.0091 29.4909 42.5212 30.9165 42.5208H35.0832C36.5088 42.5212 37.8915 43.0091 39.0017 43.9034C40.112 44.7976 40.8832 46.0446 41.1873 47.4375C38.7058 48.8975 35.879 49.6674 32.9998 49.6674C30.1207 49.6674 27.2939 48.8975 24.8123 47.4375ZM44.6873 44.75C43.8949 42.8561 42.5605 41.2386 40.8518 40.1007C39.143 38.9628 37.1361 38.3551 35.0832 38.3541H30.9165C28.8635 38.3551 26.8567 38.9628 25.1479 40.1007C23.4392 41.2386 22.1048 42.8561 21.3123 44.75C19.7512 43.2145 18.508 41.3865 17.6536 39.3704C16.7993 37.3543 16.3506 35.1896 16.3332 33C16.3872 28.5965 18.1605 24.3886 21.2745 21.2746C24.3884 18.1606 28.5964 16.3873 32.9998 16.3333C37.4033 16.3873 41.6112 18.1606 44.7252 21.2746C47.8392 24.3886 49.6125 28.5965 49.6665 33C49.6491 35.1896 49.2004 37.3543 48.3461 39.3704C47.4917 41.3865 46.2485 43.2145 44.6873 44.75Z" fill="white"/>
<path d="M33.0001 20.5C31.8987 20.4744 30.8036 20.6724 29.781 21.0821C28.7583 21.4918 27.8294 22.1047 27.0504 22.8837C26.2714 23.6627 25.6585 24.5916 25.2488 25.6142C24.8391 26.6369 24.6411 27.732 24.6668 28.8333C24.6411 29.9347 24.8391 31.0298 25.2488 32.0525C25.6585 33.0751 26.2714 34.004 27.0504 34.783C27.8294 35.562 28.7583 36.1749 29.781 36.5846C30.8036 36.9943 31.8987 37.1923 33.0001 37.1667C34.1015 37.1923 35.1966 36.9943 36.2192 36.5846C37.2419 36.1749 38.1708 35.562 38.9498 34.783C39.7288 34.004 40.3417 33.0751 40.7514 32.0525C41.1611 31.0298 41.3591 29.9347 41.3334 28.8333C41.3591 27.732 41.1611 26.6369 40.7514 25.6142C40.3417 24.5916 39.7288 23.6627 38.9498 22.8837C38.1708 22.1047 37.2419 21.4918 36.2192 21.0821C35.1966 20.6724 34.1015 20.4744 33.0001 20.5ZM33.0001 33C32.4458 33.0268 31.8921 32.9374 31.3744 32.7375C30.8568 32.5375 30.3866 32.2316 29.9943 31.8392C29.6019 31.4468 29.2959 30.9767 29.096 30.459C28.8961 29.9414 28.8066 29.3876 28.8334 28.8333C28.8066 28.2791 28.8961 27.7253 29.096 27.2077C29.2959 26.69 29.6019 26.2199 29.9943 25.8275C30.3866 25.4351 30.8568 25.1291 31.3744 24.9292C31.8921 24.7293 32.4458 24.6399 33.0001 24.6667C33.5544 24.6399 34.1081 24.7293 34.6258 24.9292C35.1434 25.1291 35.6135 25.4351 36.0059 25.8275C36.3983 26.2199 36.7043 26.69 36.9042 27.2077C37.1041 27.7253 37.1936 28.2791 37.1668 28.8333C37.1936 29.3876 37.1041 29.9414 36.9042 30.459C36.7043 30.9767 36.3983 31.4468 36.0059 31.8392C35.6135 32.2316 35.1434 32.5375 34.6258 32.7375C34.1081 32.9374 33.5544 33.0268 33.0001 33Z" fill="white"/>
</svg>
