<svg width="50" height="50" viewBox="0 0 50 50" fill="none" xmlns="http://www.w3.org/2000/svg">
<rect width="50" height="50" rx="15" fill="#F2994B"/>
<path d="M24.5002 9.08337C20.4276 9.13531 16.5364 10.7762 13.6564 13.6562C10.7764 16.5362 9.13543 20.4274 9.0835 24.5C9.10253 26.8725 9.6689 29.2086 10.7385 31.3264C11.8081 33.4442 13.352 35.2866 15.2502 36.71V36.8334H15.4043C18.0147 38.8337 21.2116 39.9177 24.5002 39.9177C27.7888 39.9177 30.9857 38.8337 33.596 36.8334H33.7502V36.71C35.6483 35.2866 37.1922 33.4442 38.2618 31.3264C39.3314 29.2086 39.8978 26.8725 39.9168 24.5C39.8649 20.4274 38.224 16.5362 35.344 13.6562C32.464 10.7762 28.5728 9.13531 24.5002 9.08337ZM18.4414 35.1838C18.6665 34.1531 19.2371 33.2303 20.0588 32.5686C20.8804 31.9068 21.9035 31.5458 22.9585 31.5455H26.0418C27.0968 31.5458 28.12 31.9068 28.9416 32.5686C29.7632 33.2303 30.3339 34.1531 30.5589 35.1838C28.7226 36.2642 26.6308 36.8339 24.5002 36.8339C22.3696 36.8339 20.2777 36.2642 18.4414 35.1838ZM33.1489 33.195C32.5625 31.7936 31.5751 30.5967 30.3106 29.7546C29.0461 28.9125 27.561 28.4629 26.0418 28.4621H22.9585C21.4393 28.4629 19.9542 28.9125 18.6897 29.7546C17.4253 30.5967 16.4378 31.7936 15.8514 33.195C14.6962 32.0588 13.7762 30.7061 13.144 29.2142C12.5117 27.7222 12.1797 26.1203 12.1668 24.5C12.2068 21.2415 13.5191 18.1276 15.8234 15.8233C18.1277 13.5189 21.2416 12.2067 24.5002 12.1667C27.7587 12.2067 30.8726 13.5189 33.1769 15.8233C35.4813 18.1276 36.7935 21.2415 36.8335 24.5C36.8206 26.1203 36.4886 27.7222 35.8564 29.2142C35.2241 30.7061 34.3041 32.0588 33.1489 33.195Z" fill="white"/>
<path d="M24.4998 15.25C23.6848 15.2311 22.8744 15.3776 22.1177 15.6808C21.3609 15.984 20.6735 16.4375 20.0971 17.0139C19.5206 17.5904 19.0671 18.2778 18.7639 19.0346C18.4607 19.7913 18.3142 20.6017 18.3332 21.4167C18.3142 22.2317 18.4607 23.0421 18.7639 23.7989C19.0671 24.5556 19.5206 25.243 20.0971 25.8195C20.6735 26.3959 21.3609 26.8495 22.1177 27.1527C22.8744 27.4558 23.6848 27.6024 24.4998 27.5834C25.3149 27.6024 26.1252 27.4558 26.882 27.1527C27.6388 26.8495 28.3262 26.3959 28.9026 25.8195C29.4791 25.243 29.9326 24.5556 30.2358 23.7989C30.539 23.0421 30.6855 22.2317 30.6665 21.4167C30.6855 20.6017 30.539 19.7913 30.2358 19.0346C29.9326 18.2778 29.4791 17.5904 28.9026 17.0139C28.3262 16.4375 27.6388 15.984 26.882 15.6808C26.1252 15.3776 25.3149 15.2311 24.4998 15.25ZM24.4998 24.5C24.0897 24.5199 23.6799 24.4537 23.2968 24.3058C22.9138 24.1578 22.5659 23.9314 22.2755 23.641C21.9852 23.3507 21.7587 23.0028 21.6108 22.6197C21.4629 22.2366 21.3967 21.8269 21.4165 21.4167C21.3967 21.0066 21.4629 20.5968 21.6108 20.2137C21.7587 19.8306 21.9852 19.4828 22.2755 19.1924C22.5659 18.902 22.9138 18.6756 23.2968 18.5277C23.6799 18.3797 24.0897 18.3136 24.4998 18.3334C24.91 18.3136 25.3198 18.3797 25.7028 18.5277C26.0859 18.6756 26.4338 18.902 26.7242 19.1924C27.0145 19.4828 27.241 19.8306 27.3889 20.2137C27.5368 20.5968 27.603 21.0066 27.5832 21.4167C27.603 21.8269 27.5368 22.2366 27.3889 22.6197C27.241 23.0028 27.0145 23.3507 26.7242 23.641C26.4338 23.9314 26.0859 24.1578 25.7028 24.3058C25.3198 24.4537 24.91 24.5199 24.4998 24.5Z" fill="white"/>
</svg>
