<svg width="23" height="23" viewBox="0 0 737 505" fill="none" xmlns="http://www.w3.org/2000/svg">
<path d="M214 107C214 47.9055 166.094 0 107 0C47.9055 0 0 47.9055 0 107V398C0 457.094 47.9055 505 107 505C166.094 505 214 457.094 214 398V107Z" fill="#DF773B"/>
<path d="M737 107.5C737 48.1294 688.871 0 629.5 0C570.129 0 522 48.1294 522 107.5V397.5C522 456.871 570.129 505 629.5 505C688.871 505 737 456.871 737 397.5V107.5Z" fill="#F2994B"/>
<path d="M475 107C475 47.9055 427.094 0 368 0C308.906 0 261 47.9055 261 107V398C261 457.094 308.906 505 368 505C427.094 505 475 457.094 475 398V107Z" fill="#9E75F5"/>
</svg>
