<svg width="180" height="40" viewBox="0 0 3395 525" fill="none" xmlns="http://www.w3.org/2000/svg">
<g filter="url(#filter0_d_803_14900)">
<rect x="7" y="8" width="214" height="505" rx="107" fill="#393939"/>
</g>
<g filter="url(#filter1_d_803_14900)">
<rect x="268" y="8" width="215" height="505" rx="107.5" fill="#A6A6A6"/>
</g>
<g filter="url(#filter2_d_803_14900)">
<rect x="530" y="8" width="214" height="505" rx="107" fill="#D7D4D4"/>
</g>
<path d="M863.4 422L964.2 124H1046.6L1147.4 422H1079.8L1059.8 361.2H950.6L930.6 422H863.4ZM967.8 307.2H1042.6L997 166.4H1013.8L967.8 307.2ZM1173.97 422V203.6H1229.97V256L1225.97 248.4C1230.77 230 1238.64 217.6 1249.57 211.2C1260.77 204.533 1273.97 201.2 1289.17 201.2H1301.97V253.2H1283.17C1268.5 253.2 1256.64 257.733 1247.57 266.8C1238.5 275.6 1233.97 288.133 1233.97 304.4V422H1173.97ZM1441.28 424.4C1414.88 424.4 1394.34 417.333 1379.68 403.2C1365.28 388.8 1358.08 368.8 1358.08 343.2V255.6H1321.28V203.6H1323.28C1334.48 203.6 1343.01 200.8 1348.88 195.2C1355.01 189.6 1358.08 181.2 1358.08 170V154H1418.08V203.6H1469.28V255.6H1418.08V339.2C1418.08 346.667 1419.41 352.933 1422.08 358C1424.74 362.8 1428.88 366.4 1434.48 368.8C1440.08 371.2 1447.01 372.4 1455.28 372.4C1457.14 372.4 1459.28 372.267 1461.68 372C1464.08 371.733 1466.61 371.467 1469.28 371.2V422C1465.28 422.533 1460.74 423.067 1455.68 423.6C1450.61 424.133 1445.81 424.4 1441.28 424.4ZM1609.64 426.8C1586.44 426.8 1566.3 421.733 1549.24 411.6C1532.17 401.2 1518.97 387.333 1509.64 370C1500.3 352.667 1495.64 333.467 1495.64 312.4C1495.64 290.533 1500.44 271.067 1510.04 254C1519.9 236.933 1533.1 223.467 1549.64 213.6C1566.17 203.733 1584.84 198.8 1605.64 198.8C1622.97 198.8 1638.3 201.6 1651.64 207.2C1664.97 212.533 1676.17 220.133 1685.24 230C1694.57 239.867 1701.64 251.333 1706.44 264.4C1711.24 277.2 1713.64 291.2 1713.64 306.4C1713.64 310.667 1713.37 314.933 1712.84 319.2C1712.57 323.2 1711.9 326.667 1710.84 329.6H1547.24V285.6H1676.84L1648.44 306.4C1651.1 294.933 1650.97 284.8 1648.04 276C1645.1 266.933 1639.9 259.867 1632.44 254.8C1625.24 249.467 1616.3 246.8 1605.64 246.8C1595.24 246.8 1586.3 249.333 1578.84 254.4C1571.37 259.467 1565.77 266.933 1562.04 276.8C1558.3 286.667 1556.84 298.667 1557.64 312.8C1556.57 325.067 1558.04 335.867 1562.04 345.2C1566.04 354.533 1572.17 361.867 1580.44 367.2C1588.7 372.267 1598.7 374.8 1610.44 374.8C1621.1 374.8 1630.17 372.667 1637.64 368.4C1645.37 364.133 1651.37 358.267 1655.64 350.8L1703.64 373.6C1699.37 384.267 1692.57 393.6 1683.24 401.6C1674.17 409.6 1663.37 415.867 1650.84 420.4C1638.3 424.667 1624.57 426.8 1609.64 426.8ZM1748.97 422V203.6H1804.97V256.8L1798.97 248C1802.17 231.2 1809.9 218.8 1822.17 210.8C1834.44 202.8 1849.1 198.8 1866.17 198.8C1884.3 198.8 1900.17 203.467 1913.77 212.8C1927.64 221.867 1936.3 234.133 1939.77 249.6L1922.57 251.2C1929.77 233.333 1940.04 220.133 1953.37 211.6C1966.7 203.067 1982.3 198.8 2000.17 198.8C2015.9 198.8 2029.77 202.267 2041.77 209.2C2054.04 216.133 2063.64 225.867 2070.57 238.4C2077.5 250.667 2080.97 265.067 2080.97 281.6V422H2020.97V294.4C2020.97 285.867 2019.37 278.533 2016.17 272.4C2013.24 266.267 2008.97 261.467 2003.37 258C1997.77 254.533 1990.97 252.8 1982.97 252.8C1975.24 252.8 1968.44 254.533 1962.57 258C1956.97 261.467 1952.57 266.267 1949.37 272.4C1946.44 278.533 1944.97 285.867 1944.97 294.4V422H1884.97V294.4C1884.97 285.867 1883.37 278.533 1880.17 272.4C1877.24 266.267 1872.97 261.467 1867.37 258C1861.77 254.533 1854.97 252.8 1846.97 252.8C1839.24 252.8 1832.44 254.533 1826.57 258C1820.97 261.467 1816.57 266.267 1813.37 272.4C1810.44 278.533 1808.97 285.867 1808.97 294.4V422H1748.97ZM2120.45 422V203.6H2180.45V422H2120.45ZM2120.45 184V124H2180.45V184H2120.45ZM2309.96 426.8C2285.96 426.8 2265.03 421.2 2247.16 410C2229.56 398.533 2217.56 383.2 2211.16 364L2255.16 343.2C2260.76 354.933 2268.36 364.133 2277.96 370.8C2287.56 377.467 2298.23 380.8 2309.96 380.8C2318.49 380.8 2325.03 379.067 2329.56 375.6C2334.09 372.133 2336.36 367.333 2336.36 361.2C2336.36 358 2335.56 355.333 2333.96 353.2C2332.36 350.8 2329.96 348.667 2326.76 346.8C2323.56 344.933 2319.56 343.333 2314.76 342L2277.56 331.6C2259.69 326.533 2245.96 318.4 2236.36 307.2C2226.76 295.733 2221.96 282.267 2221.96 266.8C2221.96 253.2 2225.43 241.333 2232.36 231.2C2239.29 221.067 2249.03 213.2 2261.56 207.6C2274.09 201.733 2288.49 198.8 2304.76 198.8C2326.09 198.8 2344.76 203.867 2360.76 214C2377.03 223.867 2388.49 237.867 2395.16 256L2350.76 276.8C2347.56 267.733 2341.69 260.533 2333.16 255.2C2324.89 249.6 2315.43 246.8 2304.76 246.8C2297.03 246.8 2290.89 248.4 2286.36 251.6C2282.09 254.8 2279.96 259.2 2279.96 264.8C2279.96 267.733 2280.76 270.4 2282.36 272.8C2283.96 275.2 2286.49 277.333 2289.96 279.2C2293.69 281.067 2298.23 282.8 2303.56 284.4L2338.36 294.8C2356.49 300.133 2370.36 308.267 2379.96 319.2C2389.56 329.867 2394.36 343.067 2394.36 358.8C2394.36 372.4 2390.76 384.267 2383.56 394.4C2376.63 404.533 2366.89 412.533 2354.36 418.4C2341.83 424 2327.03 426.8 2309.96 426.8ZM2506.49 422V124H2568.49V252.8H2684.49V124H2746.49V422H2684.49V306.8H2568.49V422H2506.49ZM2903.46 426.8C2881.86 426.8 2862.13 421.867 2844.26 412C2826.66 402.133 2812.53 388.667 2801.86 371.6C2791.46 354.267 2786.26 334.667 2786.26 312.8C2786.26 290.667 2791.46 271.067 2801.86 254C2812.53 236.933 2826.66 223.467 2844.26 213.6C2862.13 203.733 2881.86 198.8 2903.46 198.8C2925.06 198.8 2944.66 203.733 2962.26 213.6C2979.86 223.467 2993.86 236.933 3004.26 254C3014.93 271.067 3020.26 290.667 3020.26 312.8C3020.26 334.667 3014.93 354.267 3004.26 371.6C2993.86 388.667 2979.86 402.133 2962.26 412C2944.66 421.867 2925.06 426.8 2903.46 426.8ZM2903.46 372.8C2914.4 372.8 2923.86 370.267 2931.86 365.2C2940.13 360.133 2946.53 353.067 2951.06 344C2955.86 334.933 2958.26 324.533 2958.26 312.8C2958.26 301.067 2955.86 290.8 2951.06 282C2946.53 272.933 2940.13 265.867 2931.86 260.8C2923.86 255.467 2914.4 252.8 2903.46 252.8C2892.53 252.8 2882.93 255.467 2874.66 260.8C2866.4 265.867 2859.86 272.933 2855.06 282C2850.53 290.8 2848.26 301.067 2848.26 312.8C2848.26 324.533 2850.53 334.933 2855.06 344C2859.86 353.067 2866.4 360.133 2874.66 365.2C2882.93 370.267 2892.53 372.8 2903.46 372.8ZM3141.21 426.8C3117.21 426.8 3096.28 421.2 3078.41 410C3060.81 398.533 3048.81 383.2 3042.41 364L3086.41 343.2C3092.01 354.933 3099.61 364.133 3109.21 370.8C3118.81 377.467 3129.48 380.8 3141.21 380.8C3149.74 380.8 3156.28 379.067 3160.81 375.6C3165.34 372.133 3167.61 367.333 3167.61 361.2C3167.61 358 3166.81 355.333 3165.21 353.2C3163.61 350.8 3161.21 348.667 3158.01 346.8C3154.81 344.933 3150.81 343.333 3146.01 342L3108.81 331.6C3090.94 326.533 3077.21 318.4 3067.61 307.2C3058.01 295.733 3053.21 282.267 3053.21 266.8C3053.21 253.2 3056.68 241.333 3063.61 231.2C3070.54 221.067 3080.28 213.2 3092.81 207.6C3105.34 201.733 3119.74 198.8 3136.01 198.8C3157.34 198.8 3176.01 203.867 3192.01 214C3208.28 223.867 3219.74 237.867 3226.41 256L3182.01 276.8C3178.81 267.733 3172.94 260.533 3164.41 255.2C3156.14 249.6 3146.68 246.8 3136.01 246.8C3128.28 246.8 3122.14 248.4 3117.61 251.6C3113.34 254.8 3111.21 259.2 3111.21 264.8C3111.21 267.733 3112.01 270.4 3113.61 272.8C3115.21 275.2 3117.74 277.333 3121.21 279.2C3124.94 281.067 3129.48 282.8 3134.81 284.4L3169.61 294.8C3187.74 300.133 3201.61 308.267 3211.21 319.2C3220.81 329.867 3225.61 343.067 3225.61 358.8C3225.61 372.4 3222.01 384.267 3214.81 394.4C3207.88 404.533 3198.14 412.533 3185.61 418.4C3173.08 424 3158.28 426.8 3141.21 426.8ZM3366.67 424.4C3340.27 424.4 3319.74 417.333 3305.07 403.2C3290.67 388.8 3283.47 368.8 3283.47 343.2V255.6H3246.67V203.6H3248.67C3259.87 203.6 3268.4 200.8 3274.27 195.2C3280.4 189.6 3283.47 181.2 3283.47 170V154H3343.47V203.6H3394.67V255.6H3343.47V339.2C3343.47 346.667 3344.8 352.933 3347.47 358C3350.14 362.8 3354.27 366.4 3359.87 368.8C3365.47 371.2 3372.4 372.4 3380.67 372.4C3382.54 372.4 3384.67 372.267 3387.07 372C3389.47 371.733 3392 371.467 3394.67 371.2V422C3390.67 422.533 3386.14 423.067 3381.07 423.6C3376 424.133 3371.2 424.4 3366.67 424.4Z" fill="black"/>
<defs>
<filter id="filter0_d_803_14900" x="0" y="0" width="234" height="525" filterUnits="userSpaceOnUse" color-interpolation-filters="sRGB">
<feFlood flood-opacity="0" result="BackgroundImageFix"/>
<feColorMatrix in="SourceAlpha" type="matrix" values="0 0 0 0 0 0 0 0 0 0 0 0 0 0 0 0 0 0 127 0" result="hardAlpha"/>
<feOffset dx="3" dy="2"/>
<feGaussianBlur stdDeviation="5"/>
<feComposite in2="hardAlpha" operator="out"/>
<feColorMatrix type="matrix" values="0 0 0 0 0 0 0 0 0 0 0 0 0 0 0 0 0 0 0.25 0"/>
<feBlend mode="normal" in2="BackgroundImageFix" result="effect1_dropShadow_803_14900"/>
<feBlend mode="normal" in="SourceGraphic" in2="effect1_dropShadow_803_14900" result="shape"/>
</filter>
<filter id="filter1_d_803_14900" x="261" y="0" width="235" height="525" filterUnits="userSpaceOnUse" color-interpolation-filters="sRGB">
<feFlood flood-opacity="0" result="BackgroundImageFix"/>
<feColorMatrix in="SourceAlpha" type="matrix" values="0 0 0 0 0 0 0 0 0 0 0 0 0 0 0 0 0 0 127 0" result="hardAlpha"/>
<feOffset dx="3" dy="2"/>
<feGaussianBlur stdDeviation="5"/>
<feComposite in2="hardAlpha" operator="out"/>
<feColorMatrix type="matrix" values="0 0 0 0 0 0 0 0 0 0 0 0 0 0 0 0 0 0 0.25 0"/>
<feBlend mode="normal" in2="BackgroundImageFix" result="effect1_dropShadow_803_14900"/>
<feBlend mode="normal" in="SourceGraphic" in2="effect1_dropShadow_803_14900" result="shape"/>
</filter>
<filter id="filter2_d_803_14900" x="523" y="0" width="234" height="525" filterUnits="userSpaceOnUse" color-interpolation-filters="sRGB">
<feFlood flood-opacity="0" result="BackgroundImageFix"/>
<feColorMatrix in="SourceAlpha" type="matrix" values="0 0 0 0 0 0 0 0 0 0 0 0 0 0 0 0 0 0 127 0" result="hardAlpha"/>
<feOffset dx="3" dy="2"/>
<feGaussianBlur stdDeviation="5"/>
<feComposite in2="hardAlpha" operator="out"/>
<feColorMatrix type="matrix" values="0 0 0 0 0 0 0 0 0 0 0 0 0 0 0 0 0 0 0.25 0"/>
<feBlend mode="normal" in2="BackgroundImageFix" result="effect1_dropShadow_803_14900"/>
<feBlend mode="normal" in="SourceGraphic" in2="effect1_dropShadow_803_14900" result="shape"/>
</filter>
</defs>
</svg>
